<svg width="900" height="600" viewBox="0 0 900 600" fill="none" xmlns="http://www.w3.org/2000/svg"><path fill="transparent" d="M0 0h900v600H0z"/><path d="M309.087 85.767c107.472-6.238 220.149 26.249 203.587 73.343-16.564 47.094 88.55-16.726 130.496.253 29.865 12.087 17.927 48.887 32.374 63.715 33.125 33.996 67.006-8.814 109.166 16.873s-44.157 265.431-88.202 266.769l-502.358-3.052-36.05-3.24s-99.72-54.536-28.386-104.843c48.233-34.016 13.528-58.718 8.282-74.291-6.023-17.881-20.076-49.108 41.157-72.024 61.234-22.916 45.424-72.782 43.917-83.105-1.504-10.328-21.452-74.161 86.017-80.398z" fill="url(#a)"/><path fill-rule="evenodd" clip-rule="evenodd" d="M326.75 316.212c-46.159-16.801-69.96-67.836-53.161-113.989 16.798-46.154 67.836-69.95 113.995-53.15 46.159 16.801 69.96 67.836 53.161 113.99-16.798 46.154-67.836 69.949-113.995 53.149z" fill="#E1E4E5"/><path fill-rule="evenodd" clip-rule="evenodd" d="M333.997 295.842c-35.002-12.739-53.05-51.438-40.312-86.435 12.738-34.998 51.439-53.042 86.44-40.302 35.002 12.739 53.05 51.438 40.312 86.436-12.738 34.997-51.439 53.041-86.44 40.301z" fill="#fff"/><path d="M370.657 315.915c-2.364-7.276 1.618-15.09 8.894-17.454 7.275-2.364 15.09 1.617 17.454 8.893l10.812 33.276-26.348 8.56-10.812-33.275z" fill="#E1E4E5"/><rect x="370.914" y="342.656" width="42.284" height="145.023" rx="6.31" transform="rotate(-18 370.914 342.656)" fill="#31446C"/><path fill-rule="evenodd" clip-rule="evenodd" d="m548.267 439.876-9.799-15.362a120.316 120.316 0 0 0-49.219-43.691l-40.184-19.357a47.852 47.852 0 0 0-20.767-4.742h-8.528l3.241 10.756-45.663-11.153c-5.313-1.298-10.543 2.412-11.075 7.855a8.986 8.986 0 0 0 3.764 8.218l12.623 8.902c-7.909 3.81-9.006 14.629-2.023 19.949l6.414 4.887c-6.088 3.765-6.44 12.491-.675 16.734l9.305 6.849a13.36 13.36 0 0 0 7.342 14.642l9.95 4.756a27.5 27.5 0 0 0 4.582 1.71l46.011 12.651 51.348 34.424 33.353-58.028z" fill="#F8AE9D"/><path fill-rule="evenodd" clip-rule="evenodd" d="M633.334 505.999 522.033 399.423l-76.625 77.254 30.745 29.322h157.181z" fill="#666AF6"/><circle cx="525" cy="431" r="6" transform="rotate(-180 525 431)" fill="#fff"/><path d="M322.747 497.582c-59.603-21.759-101.293-73.654-125.769-113.354-26.576-43.102-39.172-81.545-39.296-81.93l-2.631 1.049c.124.385 12.809 39.119 39.55 82.512 24.712 40.097 66.834 92.52 127.176 114.551l.97-2.828z" fill="#666AF6"/><path d="M160.013 288.329c5.422 10.251 6.368 21.901 3.465 31.998-9.474-2.318-18.261-9.035-23.684-19.286-5.428-10.251-6.375-21.902-3.471-31.998 9.479 2.318 18.261 9.035 23.69 19.286zm-5.837 39.202a38.044 38.044 0 0 1 21.638 21.853c-8.894 4.661-19.834 5.52-30.195 1.441a38.08 38.08 0 0 1-21.638-21.854c8.894-4.666 19.834-5.519 30.195-1.44zm8.173 60.281c15.316-2.188 26.955-9.428 25.997-16.171-.959-6.743-14.152-10.435-29.468-8.246s-26.955 9.429-25.997 16.171c.959 6.743 14.152 10.435 29.468 8.246zm21.017 34.281c15.316-2.188 26.955-9.428 25.996-16.171-.958-6.743-14.151-10.435-29.468-8.246-15.316 2.189-26.955 9.429-25.996 16.171.958 6.743 14.151 10.435 29.468 8.246z" fill="#666AF6"/><path d="M178.871 344.197c.603-10.82 5.103-20.591 11.726-27.261 5.89 6.445 9.314 16.073 8.711 26.893-.603 10.82-5.103 20.591-11.727 27.261-5.895-6.445-9.313-16.073-8.71-26.893zm21.939 35.478c.444-10.826 4.808-20.68 11.33-27.468 5.991 6.326 9.551 15.883 9.107 26.709-.443 10.826-4.808 20.68-11.336 27.469-5.979-6.327-9.544-15.884-9.101-26.71zm15.577 53.354c4.234-2.241 8.888-2.312 12.814-.605-1.2 4.423-4.133 8.372-8.361 10.613-4.235 2.241-8.889 2.312-12.815.604 1.194-4.422 4.128-8.371 8.362-10.612zm83.26 67.861c-23.169-27.837-28.853-65.405-29.541-92.017-.749-28.894 4.065-51.478 4.114-51.703l-1.6-.237c-.049.225-4.902 22.978-4.155 52.062.691 26.876 6.437 64.829 29.892 93.012l1.29-1.117z" fill="#666AF6"/><path d="M279.378 350.945c-.265 6.614-3.14 12.635-7.47 16.784-4.01-3.862-6.419-9.697-6.154-16.312.262-6.615 3.138-12.636 7.467-16.785 4.013 3.863 6.419 9.697 6.157 16.313zm-14.127 17.67a21.717 21.717 0 0 1 4.408 16.992c-5.726-.252-11.371-2.967-15.313-7.952a21.733 21.733 0 0 1-4.408-16.991c5.727.249 11.371 2.966 15.313 7.951zm-13.261 32.091c8.186 3.314 16.007 3.081 17.468-.521 1.461-3.603-3.99-9.209-12.175-12.523-8.186-3.314-16.007-3.081-17.468.521-1.462 3.603 3.99 9.209 12.175 12.523zm.535 22.946c8.186 3.314 16.007 3.08 17.468-.522 1.462-3.602-3.99-9.209-12.175-12.523-8.186-3.314-16.007-3.08-17.468.522-1.461 3.602 3.99 9.209 12.175 12.523z" fill="#666AF6"/><path d="M272.655 383.924c3.402-5.166 8.426-8.697 13.608-10.088 1.057 4.87-.015 10.603-3.417 15.77-3.402 5.166-8.426 8.696-13.608 10.088-1.06-4.872.016-10.604 3.417-15.77zm.648 23.801c3.325-5.215 8.306-8.825 13.472-10.304 1.141 4.84.156 10.578-3.169 15.793s-8.305 8.825-13.474 10.302c-1.136-4.837-.153-10.576 3.171-15.791zm-7.62 30.796c2.732.109 5.049 1.409 6.497 3.378-1.862 1.839-4.442 2.946-7.171 2.838-2.732-.108-5.049-1.408-6.497-3.378 1.858-1.839 4.438-2.946 7.171-2.838z" fill="#666AF6"/><path d="M369.006 506.177c-5.29-7.267-34.728-45.9-54.192-52.814-21.484-7.632-1.849 20.779-1.849 20.779s-37.255-43.083-51.483-39.708c-13.041 3.094-.853 29.482-.853 29.482s-14.158-14.824-31.833-15.336c-17.202-.497 10.428 52.724 11.926 55.504l128.284 2.093zm301.864-42.064c-41.496-44.803-54.439-107.402-57.989-152.022-3.856-48.447 2.218-86.768 2.278-87.146l-2.713-.265c-.063.384-6.186 38.986-2.316 87.753 3.579 45.064 16.66 108.303 58.67 153.664l2.07-1.984z" fill="#666AF6"/><path d="M623.28 214.065c.153 11.129-4.148 21.469-11.061 28.796-7.096-6.149-11.675-15.746-11.823-26.872-.154-11.129 4.147-21.469 11.061-28.796 7.098 6.144 11.669 15.744 11.823 26.872zm-22.186 30.838a36.549 36.549 0 0 1 8.946 28.159c-9.66.055-19.404-4.032-26.487-12.073-7.083-8.041-10.028-18.362-8.948-28.154 9.662-.059 19.406 4.027 26.489 12.068zm-19.441 54.987c14.075 4.882 27.216 3.838 29.352-2.331 2.136-6.17-7.543-15.129-21.617-20.01-14.075-4.882-27.217-3.838-29.353 2.332-2.135 6.169 7.543 15.128 21.618 20.009zm2.965 38.472c14.075 4.882 27.216 3.838 29.352-2.331 2.136-6.17-7.542-15.129-21.617-20.01-14.075-4.882-27.216-3.838-29.352 2.332-2.136 6.169 7.542 15.128 21.617 20.009z" fill="#666AF6"/><path d="M614.93 269.992c5.261-8.957 13.399-15.302 21.995-18.07 2.218 8.088.928 17.803-4.334 26.76-5.261 8.957-13.399 15.303-21.995 18.07-2.222-8.09-.927-17.803 4.334-26.76zm3.232 39.9c5.127-9.032 13.185-15.508 21.747-18.421 2.355 8.031 1.213 17.745-3.914 26.778-5.127 9.032-13.185 15.508-21.752 18.419-2.348-8.021-1.211-17.738 3.919-26.776zm-10.058 52.339c4.608-.045 8.625 1.945 11.238 5.13-2.967 3.241-7.21 5.314-11.814 5.362-4.608.045-8.624-1.944-11.238-5.13 2.962-3.243 7.206-5.317 11.814-5.362zm26.654 76.27s-22.464-49.659-14.955-60.739c10.379-15.314 23.284 31.676 23.915 27.545 5.944-39.004 4.699-88.196 32.502-95.65 15.803-4.237-1.044 36.739.917 47.297 1.961 10.557 28.253-27.135 44.444-47.079 16.19-19.941 26.105-8.939 16.721 15.254-9.075 23.394-41.955 50.807-34.595 53.153 7.36 2.345 48.629-30.244 54.848-18.234 7.627 14.726-55.946 40.721-49.567 43.655 6.38 2.933 36.662-10.854 36.662.875s-41.848 14.663-40.759 19.735c1.763 8.212 28.049-12.814 30.102-1.418 2.099 11.654-35.684 12.538-34.365 21.655.759 5.238 10.275-.244 11.996 6.958 3.925 16.422-55.617 39.437-55.617 39.437l-22.249-52.444z" fill="#666AF6"/><path d="M578.898 445.786c-12.343 5.77-9.012 20.101-9.012 20.101s-33.463-26.079-45.975-10.858c-12.512 15.222-5.935 45.055 8.738 49.907 14.672 4.849 142.299 1.45 142.299 1.45s-84.948-65.789-96.05-60.6z" fill="#31446C"/><path d="M635.094 504.994s39.199-50.223 55.583-57.92c17.46-8.201 2.321 20.215 2.321 20.215s37.332-36.601 46.101-27.462c8.769 9.138-.595 17.69-.595 17.69s31.26-5.798 35.82 5.892c7.004 17.96-44.413 26.891-44.413 26.891s24.632-5.395 19.703 5.724c-7.43 16.765-114.52 8.97-114.52 8.97z" fill="#666AF6"/><path d="M674.948 506.261s-62.461 4.407-74.624-6.755c-12.167-11.162-.098-31.385-.098-31.385s-21.434-16.909-21.101-27.95c.333-11.041 14.297-5.438 14.297-5.438s-23.665-30.412-18.055-36.198c10.456-10.771 37.817 20.84 37.817 20.84s-8.119-15.038.446-17.425c12.919-3.602 22.424 33.486 22.424 33.486s-2.411-14.647 6.495-12.701c15.984 3.489 32.399 83.526 32.399 83.526z" fill="#666AF6"/><circle r="9.465" transform="matrix(1 0 0 -1 218.632 279.559)" fill="#666AF6"/><circle cx="398.468" cy="118.654" r="5.258" transform="rotate(-180 398.468 118.654)" fill="#E1E4E5"/><circle cx="648.766" cy="163.875" r="5.258" transform="rotate(-180 648.766 163.875)" fill="#E1E4E5"/><circle cx="193.918" cy="190.693" r="4.733" transform="rotate(-180 193.918 190.693)" fill="#E1E4E5"/><circle r="16.192" transform="scale(1 -1) rotate(-15 -281.456 -2018.941)" fill="#666AF6"/><defs><linearGradient id="a" x1="464.755" y1="743.161" x2="456.829" y2="-373.855" gradientUnits="userSpaceOnUse"><stop stop-color="#fff"/><stop offset="1" stop-color="#EEE"/></linearGradient></defs></svg>